<?xml version="1.0" encoding="UTF-8" standalone="no"?>
<svg
   width="48"
   height="48"
   version="1.1"
   id="svg38"
   sodipodi:docname="defaultapp.svg"
   inkscape:version="1.2.2 (1:1.2.2+202212051552+b0a8486541)"
   xmlns:inkscape="http://www.inkscape.org/namespaces/inkscape"
   xmlns:sodipodi="http://sodipodi.sourceforge.net/DTD/sodipodi-0.dtd"
   xmlns:xlink="http://www.w3.org/1999/xlink"
   xmlns="http://www.w3.org/2000/svg"
   xmlns:svg="http://www.w3.org/2000/svg">
  <sodipodi:namedview
     id="namedview40"
     pagecolor="#ffffff"
     bordercolor="#666666"
     borderopacity="1.0"
     inkscape:showpageshadow="2"
     inkscape:pageopacity="0.0"
     inkscape:pagecheckerboard="0"
     inkscape:deskcolor="#d1d1d1"
     showgrid="true"
     showguides="false"
     inkscape:zoom="8"
     inkscape:cx="18.5625"
     inkscape:cy="35.9375"
     inkscape:window-width="1366"
     inkscape:window-height="740"
     inkscape:window-x="0"
     inkscape:window-y="28"
     inkscape:window-maximized="1"
     inkscape:current-layer="svg38">
    <inkscape:grid
       type="xygrid"
       id="grid269" />
    <sodipodi:guide
       position="16,35"
       orientation="0.5,0.8660254"
       id="guide1065"
       inkscape:locked="false"
       inkscape:label=""
       inkscape:color="rgb(0,134,229)" />
    <sodipodi:guide
       position="16,13"
       orientation="-0.5,0.8660254"
       id="guide1067"
       inkscape:locked="false"
       inkscape:label=""
       inkscape:color="rgb(0,134,229)" />
    <sodipodi:guide
       position="13,36"
       orientation="1,0"
       id="guide1069"
       inkscape:locked="false" />
    <sodipodi:guide
       position="35,23.969655"
       orientation="0,-1"
       id="guide1190"
       inkscape:locked="false" />
    <sodipodi:guide
       position="16,32"
       orientation="1,0"
       id="guide1419"
       inkscape:locked="false" />
    <sodipodi:guide
       position="27,35"
       orientation="0,-1"
       id="guide1421"
       inkscape:locked="false" />
    <sodipodi:guide
       position="30,13"
       orientation="0,-1"
       id="guide1423"
       inkscape:locked="false" />
    <sodipodi:guide
       position="32,23.969655"
       orientation="1,0"
       id="guide1425"
       inkscape:locked="false" />
    <sodipodi:guide
       position="35,25"
       orientation="1,0"
       id="guide1427"
       inkscape:locked="false" />
    <sodipodi:guide
       position="31,32"
       orientation="0,-1"
       id="guide1429"
       inkscape:locked="false" />
    <sodipodi:guide
       position="30,16"
       orientation="0,-1"
       id="guide1431"
       inkscape:locked="false" />
  </sodipodi:namedview>
  <defs
     id="defs22">
    <linearGradient
       id="linearGradient4154">
      <stop
         offset="0"
         style="stop-color:#000000;stop-opacity:1"
         id="stop2" />
      <stop
         offset="1"
         style="stop-color:#000000;stop-opacity:0"
         id="stop4" />
    </linearGradient>
    <linearGradient
       id="linearGradient4192">
      <stop
         style="stop-color:#272b2d;stop-opacity:1"
         offset="0"
         id="stop7" />
      <stop
         style="stop-color:#33393e;stop-opacity:1"
         offset="1"
         id="stop9" />
    </linearGradient>
    <linearGradient
       id="linearGradient4140">
      <stop
         style="stop-color:#279646;stop-opacity:1"
         offset="0"
         id="stop12" />
      <stop
         style="stop-color:#76ff68;stop-opacity:1"
         offset="1"
         id="stop14" />
    </linearGradient>
    <linearGradient
       xlink:href="#linearGradient4140"
       id="linearGradient4146"
       x1="24.705"
       y1="43.939"
       x2="25.061"
       y2="4.405"
       gradientUnits="userSpaceOnUse" />
    <linearGradient
       xlink:href="#linearGradient4192"
       id="linearGradient4166"
       x1="31"
       y1="34"
       x2="31"
       y2="24"
       gradientUnits="userSpaceOnUse" />
    <linearGradient
       xlink:href="#linearGradient4192"
       id="linearGradient4168"
       x1="18"
       y1="34"
       x2="18"
       y2="24"
       gradientUnits="userSpaceOnUse" />
    <linearGradient
       xlink:href="#linearGradient4154"
       id="linearGradient4182"
       x1="13"
       y1="24"
       x2="30"
       y2="41"
       gradientUnits="userSpaceOnUse" />
    <linearGradient
       xlink:href="#linearGradient4154"
       id="linearGradient4190"
       x1="29"
       y1="26"
       x2="36"
       y2="33"
       gradientUnits="userSpaceOnUse" />
  </defs>
  <rect
     style="fill:#808080;stroke-width:3;stroke-linecap:round;stroke-linejoin:round;paint-order:markers stroke fill;fill-opacity:0.25"
     id="rect400"
     width="38"
     height="38"
     x="5"
     y="5"
     ry="5" />
  <path
     id="rect1004"
     style="fill:#808080;fill-opacity:0.15000001;stroke-width:2.36842;stroke-linecap:round;stroke-linejoin:round;paint-order:markers stroke fill"
     d="M 12.947266 9 C 10.760426 9 9 10.760426 9 12.947266 L 9 35.052734 C 9 37.239574 10.760426 39 12.947266 39 L 35.052734 39 C 37.239574 39 39 37.239574 39 35.052734 L 39 12.947266 C 39 10.760426 37.239574 9 35.052734 9 L 12.947266 9 z M 13.683594 10 L 34.316406 10 C 36.357457 10 38 11.642543 38 13.683594 L 38 34.316406 C 38 36.357457 36.357457 38 34.316406 38 L 13.683594 38 C 11.642543 38 10 36.357457 10 34.316406 L 10 13.683594 C 10 11.642543 11.642543 10 13.683594 10 z " />
  <path
     id="rect1006"
     style="fill:#808080;fill-opacity:0.15000001;stroke-width:1.73685;stroke-linecap:round;stroke-linejoin:round;paint-order:markers stroke fill"
     d="m 17,13 c -0.0397,0 -0.07788,0.0043 -0.117188,0.0059 -0.04437,0.0018 -0.08865,0.0041 -0.132812,0.0078 -0.05527,0.0045 -0.109697,0.0101 -0.164062,0.01758 -0.0411,0.0058 -0.08226,0.01208 -0.123047,0.01953 -0.05916,0.01064 -0.1179,0.02307 -0.175782,0.03711 -0.03472,0.0085 -0.06912,0.0176 -0.103515,0.02734 -0.0694,0.01948 -0.137837,0.04023 -0.205078,0.06445 -0.01459,0.0053 -0.02846,0.01206 -0.04297,0.01758 -0.07997,0.03023 -0.157871,0.06292 -0.234375,0.09961 -0.0084,0.004 -0.01702,0.0076 -0.02539,0.01172 -0.87382,0.429171 -1.503193,1.270268 -1.642578,2.273437 -0.0033,0.02287 -0.009,0.04547 -0.01172,0.06836 -0.0072,0.06253 -0.01032,0.125783 -0.01367,0.189453 -0.002,0.03706 -0.0052,0.07431 -0.0059,0.111328 C 14.001689,15.967638 14,15.983469 14,16 v 16 c 0,0.01653 0.0017,0.03236 0.002,0.04883 6.6e-4,0.03702 0.0038,0.07427 0.0059,0.111328 0.0034,0.06367 0.0064,0.126919 0.01367,0.189453 0.0027,0.02289 0.0085,0.04549 0.01172,0.06836 0.01115,0.08027 0.02369,0.160211 0.04102,0.238281 0.112474,0.506674 0.353355,0.962403 0.685547,1.335938 0.0662,0.07444 0.135731,0.145411 0.208984,0.21289 0.07185,0.06619 0.146498,0.128534 0.224609,0.1875 0.07736,0.05839 0.157253,0.113262 0.240235,0.164063 0.07856,0.04809 0.159033,0.09392 0.242187,0.134765 0.0084,0.0041 0.01699,0.0077 0.02539,0.01172 0.0765,0.03669 0.154401,0.06938 0.234375,0.09961 0.01451,0.0055 0.02838,0.01229 0.04297,0.01758 0.06724,0.02423 0.135673,0.04498 0.205078,0.06445 0.03439,0.0097 0.0688,0.01883 0.103515,0.02734 0.05788,0.01404 0.11662,0.02647 0.175782,0.03711 0.04079,0.0074 0.08195,0.01377 0.123047,0.01953 0.05436,0.0075 0.108789,0.01303 0.164062,0.01758 0.04416,0.0037 0.08845,0.006 0.132812,0.0078 C 16.922125,34.995653 16.960305,35 17,35 c 0.01719,0 0.03366,-0.0017 0.05078,-0.002 0.04245,-7.01e-4 0.08445,-0.0053 0.126953,-0.0078 0.05638,-0.0033 0.112488,-0.0054 0.167969,-0.01172 0.03446,-0.004 0.0691,-0.01039 0.103516,-0.01563 0.0682,-0.0102 0.136536,-0.02047 0.203125,-0.03516 0.0032,-7.14e-4 0.0065,-0.0012 0.0098,-0.002 0.01244,-0.0028 0.02469,-0.0068 0.03711,-0.0098 0.08392,-0.01993 0.167065,-0.04353 0.248047,-0.07031 0.09637,-0.03187 0.189545,-0.06831 0.28125,-0.109375 0.09399,-0.04209 0.184928,-0.08946 0.273437,-0.140625 l 0.01172,-0.0059 13.71289,-7.917969 c 0.390063,-0.200071 0.739593,-0.486534 1.017579,-0.853516 0.0031,-0.0041 0.0067,-0.0076 0.0098,-0.01172 0.0011,-0.0014 0.0028,-0.0025 0.0039,-0.0039 0.03911,-0.05238 0.07522,-0.108528 0.111329,-0.164062 0.02168,-0.0331 0.04416,-0.06576 0.06445,-0.09961 0.0075,-0.01261 0.01607,-0.02435 0.02344,-0.03711 0.01623,-0.02811 0.02774,-0.05754 0.04297,-0.08594 0.0272,-0.05057 0.05589,-0.10042 0.08008,-0.152344 0.01661,-0.03566 0.03178,-0.07141 0.04687,-0.107422 0.02383,-0.05689 0.04616,-0.113701 0.06641,-0.171875 0.01155,-0.03308 0.02092,-0.06633 0.03125,-0.09961 0.01825,-0.05896 0.03621,-0.117772 0.05078,-0.177735 0.0094,-0.03877 0.0156,-0.07825 0.02344,-0.117187 0.01083,-0.0538 0.02143,-0.107742 0.0293,-0.16211 0.0074,-0.05143 0.01285,-0.102785 0.01758,-0.154296 0.0034,-0.03639 0.0077,-0.07284 0.0098,-0.109376 0.003,-0.05489 0.0039,-0.109287 0.0039,-0.164062 3e-5,-0.05477 -9.06e-4,-0.109176 -0.0039,-0.164062 -0.002,-0.03654 -0.0064,-0.07299 -0.0098,-0.109376 -0.0047,-0.05151 -0.01013,-0.102865 -0.01758,-0.154296 -0.0079,-0.05437 -0.01847,-0.108311 -0.0293,-0.16211 -0.0078,-0.03893 -0.014,-0.07841 -0.02344,-0.117187 -0.01458,-0.05996 -0.03254,-0.118779 -0.05078,-0.177735 -0.01033,-0.03328 -0.0197,-0.06653 -0.03125,-0.09961 -0.02025,-0.05817 -0.04258,-0.114983 -0.06641,-0.171875 -0.0151,-0.03601 -0.03026,-0.07176 -0.04687,-0.107422 -0.02418,-0.05192 -0.05288,-0.10177 -0.08008,-0.152344 -0.01522,-0.02839 -0.02674,-0.05783 -0.04297,-0.08594 -0.0074,-0.01276 -0.01591,-0.0245 -0.02344,-0.03711 -0.02029,-0.03384 -0.04278,-0.06651 -0.06445,-0.09961 -0.03611,-0.05553 -0.07222,-0.111683 -0.111329,-0.164062 -0.0011,-0.0015 -0.0028,-0.0024 -0.0039,-0.0039 -0.0031,-0.004 -0.0067,-0.0077 -0.0098,-0.01172 C 32.96619,21.814495 32.61666,21.528032 32.226597,21.327961 L 18.501953,13.404297 c -0.258189,-0.149262 -0.539838,-0.262884 -0.839844,-0.330078 -0.0032,-7.35e-4 -0.0065,-0.0012 -0.0098,-0.002 -0.06659,-0.01468 -0.134927,-0.02495 -0.203125,-0.03516 -0.03441,-0.0052 -0.06905,-0.01161 -0.103516,-0.01563 -0.05548,-0.0063 -0.11159,-0.0084 -0.167969,-0.01172 -0.04251,-0.0025 -0.0845,-0.0071 -0.126953,-0.0078 C 17.03366,13.001668 17.017191,13 17,13 Z"
     sodipodi:nodetypes="sccccccccccccccssccccsssssccccccccccsscccsccsscccsccccscsccccsscccccssccccscsccscccccccccss" />
  <path
     id="path1502"
     style="fill:#808080;fill-opacity:0.25;stroke-width:1.73685;stroke-linecap:round;stroke-linejoin:round;paint-order:markers stroke fill"
     d="m -26.226597,13 c -0.0397,0 -0.07788,0.0043 -0.117188,0.0059 -0.04437,0.0018 -0.08865,0.0041 -0.132812,0.0078 -0.05527,0.0045 -0.109697,0.0101 -0.164062,0.01758 -0.0411,0.0058 -0.08226,0.01208 -0.123047,0.01953 -0.05916,0.01064 -0.1179,0.02307 -0.175782,0.03711 -0.03472,0.0085 -0.06912,0.0176 -0.103515,0.02734 -0.0694,0.01948 -0.137837,0.04023 -0.205078,0.06445 -0.01459,0.0053 -0.02846,0.01206 -0.04297,0.01758 -0.07997,0.03023 -0.157871,0.06292 -0.234375,0.09961 -0.0084,0.004 -0.01702,0.0076 -0.02539,0.01172 -0.87382,0.429171 -1.503193,1.270268 -1.642578,2.273437 -0.0033,0.02287 -0.009,0.04547 -0.01172,0.06836 -0.0072,0.06253 -0.01032,0.125783 -0.01367,0.189453 -0.002,0.03706 -0.0052,0.07431 -0.0059,0.111328 -2.24e-4,0.01644 -0.0019,0.03227 -0.0019,0.0488 v 16 c 0,0.01653 0.0017,0.03236 0.002,0.04883 6.6e-4,0.03702 0.0038,0.07427 0.0059,0.111328 0.0034,0.06367 0.0064,0.126919 0.01367,0.189453 0.0027,0.02289 0.0085,0.04549 0.01172,0.06836 0.01115,0.08027 0.02369,0.160211 0.04102,0.238281 0.112474,0.506674 0.353355,0.962403 0.685547,1.335938 0.0662,0.07444 0.135731,0.145411 0.208984,0.21289 0.07185,0.06619 0.146498,0.128534 0.224609,0.1875 0.07736,0.05839 0.157253,0.113262 0.240235,0.164063 0.07856,0.04809 0.159033,0.09392 0.242187,0.134765 0.0084,0.0041 0.01699,0.0077 0.02539,0.01172 0.0765,0.03669 0.154401,0.06938 0.234375,0.09961 0.01451,0.0055 0.02838,0.01229 0.04297,0.01758 0.06724,0.02423 0.135673,0.04498 0.205078,0.06445 0.03439,0.0097 0.0688,0.01883 0.103515,0.02734 0.05788,0.01404 0.11662,0.02647 0.175782,0.03711 0.04079,0.0074 0.08195,0.01377 0.123047,0.01953 0.05436,0.0075 0.108789,0.01303 0.164062,0.01758 0.04416,0.0037 0.08845,0.006 0.132812,0.0078 0.03922,0.0015 0.0774,0.0059 0.117097,0.0059 0.01719,0 0.03366,-0.0017 0.05078,-0.002 0.04245,-7.01e-4 0.08445,-0.0053 0.126953,-0.0078 0.05638,-0.0033 0.112488,-0.0054 0.167969,-0.01172 0.03446,-0.004 0.0691,-0.01039 0.103516,-0.01563 0.0682,-0.0102 0.136536,-0.02047 0.203125,-0.03516 0.0032,-7.14e-4 0.0065,-0.0012 0.0098,-0.002 0.01244,-0.0028 0.02469,-0.0068 0.03711,-0.0098 0.08392,-0.01993 0.167065,-0.04353 0.248047,-0.07031 0.09637,-0.03187 0.189545,-0.06831 0.28125,-0.109375 0.09399,-0.04209 0.184928,-0.08946 0.273437,-0.140625 l 0.01172,-0.0059 L -11,26.671711 c 0.390063,-0.200071 0.739593,-0.486534 1.017579,-0.853516 0.0031,-0.0041 0.0067,-0.0076 0.0098,-0.01172 0.0011,-0.0014 0.0028,-0.0025 0.0039,-0.0039 0.03911,-0.05238 0.07522,-0.108528 0.111329,-0.164062 0.02168,-0.0331 0.04416,-0.06576 0.06445,-0.09961 0.0075,-0.01261 0.01607,-0.02435 0.02344,-0.03711 0.01623,-0.02811 0.02774,-0.05754 0.04297,-0.08594 0.0272,-0.05057 0.05589,-0.10042 0.08008,-0.152344 0.01661,-0.03566 0.03178,-0.07141 0.04687,-0.107422 0.02383,-0.05689 0.04616,-0.113701 0.06641,-0.171875 0.01155,-0.03308 0.02092,-0.06633 0.03125,-0.09961 0.01825,-0.05896 0.03621,-0.117772 0.05078,-0.177735 0.0094,-0.03877 0.0156,-0.07825 0.02344,-0.117187 0.01083,-0.0538 0.02143,-0.107742 0.0293,-0.16211 0.0074,-0.05143 0.01285,-0.102785 0.01758,-0.154296 0.0034,-0.03639 0.0077,-0.07284 0.0098,-0.109376 0.003,-0.05489 0.0039,-0.109287 0.0039,-0.164062 3e-5,-0.05477 -9.06e-4,-0.109176 -0.0039,-0.164062 -0.002,-0.03654 -0.0064,-0.07299 -0.0098,-0.109376 -0.0047,-0.05151 -0.01013,-0.102865 -0.01758,-0.154296 -0.0079,-0.05437 -0.01847,-0.108311 -0.0293,-0.16211 -0.0078,-0.03893 -0.014,-0.07841 -0.02344,-0.117187 -0.01458,-0.05996 -0.03254,-0.118779 -0.05078,-0.177735 -0.01033,-0.03328 -0.0197,-0.06653 -0.03125,-0.09961 -0.02025,-0.05817 -0.04258,-0.114983 -0.06641,-0.171875 -0.0151,-0.03601 -0.03026,-0.07176 -0.04687,-0.107422 -0.02418,-0.05192 -0.05288,-0.10177 -0.08008,-0.152344 -0.01522,-0.02839 -0.02674,-0.05783 -0.04297,-0.08594 -0.0074,-0.01276 -0.01591,-0.0245 -0.02344,-0.03711 -0.02029,-0.03384 -0.04278,-0.06651 -0.06445,-0.09961 -0.03611,-0.05553 -0.07222,-0.111683 -0.111329,-0.164062 -0.0011,-0.0015 -0.0028,-0.0024 -0.0039,-0.0039 -0.0031,-0.004 -0.0067,-0.0077 -0.0098,-0.01172 C -10.260407,21.814495 -10.609937,21.528032 -11,21.327961 l -13.724644,-7.923664 c -0.258189,-0.149262 -0.539838,-0.262884 -0.839844,-0.330078 -0.0032,-7.35e-4 -0.0065,-0.0012 -0.0098,-0.002 -0.06659,-0.01468 -0.134927,-0.02495 -0.203125,-0.03516 -0.03441,-0.0052 -0.06905,-0.01161 -0.103516,-0.01563 -0.05548,-0.0063 -0.11159,-0.0084 -0.167969,-0.01172 -0.04251,-0.0025 -0.0845,-0.0071 -0.126953,-0.0078 C -26.192937,13.001668 -26.209406,13 -26.226597,13 Z"
     sodipodi:nodetypes="sccccccccccccccssccccsssssccccccccccsscccsccsscccsccccscsccccsscccccssccccscsccscccccccccss" />
</svg>
