<?xml version="1.0" encoding="UTF-8" standalone="no"?>
<svg
   width="50"
   height="50"
   version="1.1"
   id="svg38"
   sodipodi:docname="snap.svg"
   inkscape:version="1.2.2 (1:1.2.2+202212051552+b0a8486541)"
   xml:space="preserve"
   xmlns:inkscape="http://www.inkscape.org/namespaces/inkscape"
   xmlns:sodipodi="http://sodipodi.sourceforge.net/DTD/sodipodi-0.dtd"
   xmlns:xlink="http://www.w3.org/1999/xlink"
   xmlns="http://www.w3.org/2000/svg"
   xmlns:svg="http://www.w3.org/2000/svg"><sodipodi:namedview
     id="namedview40"
     pagecolor="#ffffff"
     bordercolor="#666666"
     borderopacity="1.0"
     inkscape:showpageshadow="2"
     inkscape:pageopacity="0.0"
     inkscape:pagecheckerboard="0"
     inkscape:deskcolor="#d1d1d1"
     showgrid="true"
     showguides="true"
     inkscape:zoom="8"
     inkscape:cx="22.4375"
     inkscape:cy="28.8125"
     inkscape:window-width="1366"
     inkscape:window-height="740"
     inkscape:window-x="0"
     inkscape:window-y="28"
     inkscape:window-maximized="1"
     inkscape:current-layer="g319"><inkscape:grid
       type="xygrid"
       id="grid269"
       originx="0"
       originy="0" /></sodipodi:namedview><defs
     id="defs22"><linearGradient
       inkscape:collect="always"
       id="linearGradient2612"><stop
         style="stop-color:#ffffff;stop-opacity:0.28233513;"
         offset="0"
         id="stop2608" /><stop
         style="stop-color:#ffffff;stop-opacity:1;"
         offset="1"
         id="stop2610" /></linearGradient><linearGradient
       id="linearGradient4154"><stop
         offset="0"
         style="stop-color:#000000;stop-opacity:1"
         id="stop2" /><stop
         offset="1"
         style="stop-color:#000000;stop-opacity:0"
         id="stop4" /></linearGradient><linearGradient
       id="linearGradient4192"><stop
         style="stop-color:#272b2d;stop-opacity:1"
         offset="0"
         id="stop7" /><stop
         style="stop-color:#33393e;stop-opacity:1"
         offset="1"
         id="stop9" /></linearGradient><linearGradient
       id="linearGradient4140"><stop
         style="stop-color:#279646;stop-opacity:1"
         offset="0"
         id="stop12" /><stop
         style="stop-color:#76ff68;stop-opacity:1"
         offset="1"
         id="stop14" /></linearGradient><linearGradient
       xlink:href="#linearGradient4140"
       id="linearGradient4146"
       x1="24.705"
       y1="43.938999"
       x2="25.061001"
       y2="4.4050002"
       gradientUnits="userSpaceOnUse" /><linearGradient
       xlink:href="#linearGradient4192"
       id="linearGradient4166"
       x1="31"
       y1="34"
       x2="31"
       y2="24"
       gradientUnits="userSpaceOnUse" /><linearGradient
       xlink:href="#linearGradient4192"
       id="linearGradient4168"
       x1="18"
       y1="34"
       x2="18"
       y2="24"
       gradientUnits="userSpaceOnUse" /><linearGradient
       xlink:href="#linearGradient4154"
       id="linearGradient4182"
       x1="13"
       y1="24"
       x2="30"
       y2="41"
       gradientUnits="userSpaceOnUse" /><linearGradient
       xlink:href="#linearGradient4154"
       id="linearGradient4190"
       x1="29"
       y1="26"
       x2="36"
       y2="33"
       gradientUnits="userSpaceOnUse" /><linearGradient
       inkscape:collect="always"
       xlink:href="#linearGradient2612"
       id="linearGradient2614"
       x1="11.80075"
       y1="12.004606"
       x2="17.344526"
       y2="5.4930258"
       gradientUnits="userSpaceOnUse" /></defs><g
     id="g319"
     transform="matrix(3.0263158,0,0,3.0263158,-10.131579,-10.131579)"><polygon
       id="plate"
       points="0,32 0,0 148,0 148,32 "
       transform="matrix(0.33043478,0,0,0.33043478,-58.435514,11.58084)"
       style="fill:none;fill-rule:evenodd;stroke:none;stroke-width:1" /><path
       d="m -41.853999,18.859756 c 0.299374,0 0.546869,-0.04957 0.742156,-0.148365 0.195287,-0.0988 0.292765,-0.266 0.292765,-0.501269 0,-0.112348 -0.01751,-0.208835 -0.05188,-0.2888 -0.03503,-0.08063 -0.09252,-0.152661 -0.172817,-0.216766 -0.07997,-0.06443 -0.185705,-0.125565 -0.316887,-0.184382 -0.131183,-0.05915 -0.292765,-0.128539 -0.485409,-0.209165 -0.154974,-0.06377 -0.302348,-0.1292 -0.44113,-0.196279 -0.139113,-0.06675 -0.262035,-0.1444 -0.369096,-0.232626 -0.107061,-0.08823 -0.192643,-0.193634 -0.256748,-0.316887 -0.06377,-0.122921 -0.09616,-0.272939 -0.09616,-0.449061 0,-0.337373 0.126887,-0.609982 0.380991,-0.818486 0.254104,-0.208505 0.603043,-0.313253 1.047148,-0.313253 0.283513,0 0.51713,0.02412 0.701843,0.07237 0.184713,0.04824 0.314244,0.0912 0.389252,0.128539 l -0.120608,0.465252 c -0.0641,-0.03238 -0.172157,-0.07468 -0.324818,-0.128539 -0.15233,-0.0532 -0.375704,-0.07997 -0.669791,-0.07997 -0.117965,0 -0.228661,0.0119 -0.333078,0.03602 -0.104418,0.02412 -0.196609,0.06179 -0.276905,0.112348 -0.08029,0.05122 -0.1444,0.115652 -0.192313,0.192974 -0.04824,0.07798 -0.07237,0.173147 -0.07237,0.285495 0,0.112679 0.02148,0.209166 0.06411,0.289461 0.04296,0.08063 0.105739,0.15167 0.188678,0.213131 0.08294,0.06179 0.184382,0.118956 0.304991,0.172487 0.120278,0.0532 0.257739,0.111687 0.413044,0.17546 0.160591,0.0641 0.314243,0.1292 0.461287,0.195948 0.147043,0.06642 0.276904,0.146713 0.389252,0.240226 0.112017,0.09318 0.203217,0.205861 0.272608,0.336713 0.06939,0.131183 0.104418,0.29574 0.104418,0.49367 0,0.374383 -0.140435,0.657565 -0.421305,0.850209 -0.280539,0.192643 -0.664504,0.28913 -1.151234,0.28913 -0.363809,0 -0.642035,-0.03139 -0.834348,-0.09252 -0.192313,-0.06146 -0.320852,-0.108052 -0.385287,-0.140434 l 0.136469,-0.473513 c 0.01619,0.0109 0.05089,0.02809 0.104418,0.05254 0.05353,0.02379 0.125565,0.05089 0.216435,0.07996 0.09087,0.02974 0.199582,0.05518 0.325147,0.07633 0.125566,0.02148 0.271287,0.03205 0.437166,0.03205"
       id="Fill-7"
       fill="#ffffff"
       style="fill-rule:evenodd;stroke:none;stroke-width:0.330435" /><path
       d="m -39.565144,15.225304 c 0.154974,-0.04263 0.363479,-0.09087 0.625844,-0.1444 0.262035,-0.05353 0.582887,-0.08029 0.962556,-0.08029 0.315565,0 0.578922,0.0456 0.7904,0.136469 0.211148,0.09087 0.37967,0.2204 0.505565,0.389252 0.125235,0.168522 0.215114,0.370087 0.268644,0.605687 0.05353,0.23527 0.0803,0.494661 0.0803,0.778505 v 2.31833 h -0.521757 v -2.150139 c 0,-0.294087 -0.01983,-0.542904 -0.06014,-0.745791 -0.03998,-0.203548 -0.10673,-0.369426 -0.200574,-0.497966 -0.09351,-0.128208 -0.216435,-0.2204 -0.368765,-0.276573 -0.152661,-0.05617 -0.343983,-0.08426 -0.573965,-0.08426 -0.246174,0 -0.458313,0.01322 -0.637409,0.04031 -0.179426,0.02643 -0.295739,0.05056 -0.34927,0.07203 v 3.642382 h -0.521426 z"
       id="Fill-9"
       fill="#ffffff"
       style="fill-rule:evenodd;stroke:none;stroke-width:0.330435" /><path
       d="m -34.058779,14.984583 c 0.27294,0 0.504244,0.03899 0.694574,0.116313 0.189339,0.07765 0.343322,0.184713 0.460626,0.321182 0.118296,0.136139 0.203218,0.298052 0.257079,0.485078 0.05353,0.187357 0.0803,0.390574 0.0803,0.609983 v 2.615391 c -0.05386,0.01619 -0.131182,0.03337 -0.232626,0.05221 -0.101774,0.01883 -0.219408,0.03866 -0.353235,0.06014 -0.133826,0.02115 -0.28186,0.03866 -0.445426,0.05221 -0.163234,0.01322 -0.330104,0.01983 -0.501269,0.01983 -0.219078,0 -0.421304,-0.02379 -0.605687,-0.07203 -0.184713,-0.04824 -0.344974,-0.124574 -0.481444,-0.228661 -0.136139,-0.104417 -0.2432,-0.237913 -0.320852,-0.401147 -0.07732,-0.163235 -0.115982,-0.362157 -0.115982,-0.597757 0,-0.224696 0.04263,-0.417009 0.127878,-0.5776 0.08558,-0.160261 0.205861,-0.292765 0.361165,-0.396852 0.154974,-0.104748 0.339357,-0.181078 0.553809,-0.228991 0.213461,-0.04791 0.446087,-0.07204 0.697548,-0.07204 0.07534,0 0.153982,0.004 0.236921,0.0119 0.08294,0.0079 0.163235,0.01883 0.240557,0.03205 0.07765,0.01355 0.1444,0.02677 0.200574,0.04031 0.0565,0.01322 0.09517,0.02544 0.116313,0.03569 v -0.256418 c 0,-0.1444 -0.01091,-0.284835 -0.03205,-0.421304 -0.02148,-0.13647 -0.06774,-0.259391 -0.140435,-0.369096 -0.07237,-0.109374 -0.173478,-0.1976 -0.304991,-0.264678 -0.130522,-0.06675 -0.30334,-0.100122 -0.517461,-0.100122 -0.304661,0 -0.532,0.02148 -0.681687,0.06443 -0.149687,0.04263 -0.259392,0.07732 -0.329113,0.103756 l -0.07203,-0.456991 c 0.09087,-0.04296 0.231635,-0.08294 0.421304,-0.120609 0.18967,-0.03734 0.418331,-0.05617 0.685652,-0.05617 m 0.04824,3.867078 c 0.203548,0 0.381322,-0.0066 0.533983,-0.02016 0.15233,-0.01322 0.28153,-0.03073 0.388591,-0.05188 v -1.460191 c -0.05849,-0.02676 -0.152,-0.05485 -0.280539,-0.08426 -0.128539,-0.02941 -0.304992,-0.04428 -0.529687,-0.04428 -0.127878,0 -0.262035,0.0096 -0.401148,0.02809 -0.138783,0.01916 -0.267652,0.05882 -0.385287,0.120278 -0.117635,0.06146 -0.213791,0.146052 -0.2888,0.252782 -0.07435,0.107061 -0.112017,0.249148 -0.112017,0.42527 0,0.155304 0.02544,0.286157 0.076,0.393217 0.05089,0.107061 0.122921,0.192644 0.216434,0.257079 0.09417,0.06377 0.206192,0.110695 0.337705,0.140104 0.130521,0.02941 0.279217,0.04395 0.444765,0.04395"
       id="Fill-11"
       fill="#ffffff"
       style="fill-rule:evenodd;stroke:none;stroke-width:0.330435" /><path
       d="m -31.143253,20.712967 h -0.521426 v -5.487531 c 0.154973,-0.05353 0.352573,-0.104417 0.593791,-0.15233 0.240226,-0.04824 0.544887,-0.07236 0.913982,-0.07236 0.304992,0 0.581896,0.04957 0.830383,0.148365 0.249148,0.0988 0.462609,0.242209 0.642035,0.429235 0.179096,0.187356 0.317878,0.414695 0.417009,0.681687 0.0988,0.267652 0.148365,0.57 0.148365,0.907043 0,0.315565 -0.04131,0.606018 -0.124244,0.870365 -0.08294,0.264679 -0.204539,0.492348 -0.364469,0.681687 -0.160592,0.190331 -0.3572,0.338366 -0.589826,0.445427 -0.232957,0.107391 -0.499287,0.160921 -0.798331,0.160921 -0.272939,0 -0.50953,-0.03899 -0.710435,-0.116643 -0.200243,-0.07765 -0.346295,-0.151339 -0.436834,-0.220731 z m 0,-2.230435 c 0.04824,0.03734 0.108052,0.07765 0.180087,0.120609 0.07269,0.04263 0.156626,0.08261 0.253113,0.120278 0.09649,0.03734 0.200574,0.0684 0.312921,0.09219 0.112348,0.02412 0.229322,0.03602 0.352574,0.03602 0.257079,0 0.472192,-0.04395 0.646,-0.132505 0.173809,-0.08789 0.313913,-0.208504 0.421305,-0.360834 0.107061,-0.152661 0.184382,-0.331757 0.232626,-0.537618 0.04791,-0.205861 0.07237,-0.423948 0.07237,-0.6536 0,-0.545878 -0.1368,-0.963878 -0.409409,-1.255652 -0.272939,-0.291774 -0.633774,-0.437165 -1.083165,-0.437165 -0.256417,0 -0.4636,0.0119 -0.621878,0.03569 -0.157287,0.02412 -0.276574,0.04957 -0.356539,0.07633 z"
       id="Fill-13"
       fill="#ffffff"
       style="fill-rule:evenodd;stroke:none;stroke-width:0.330435" /><path
       d="m -24.605238,19.02015 c -0.05882,0.03734 -0.128208,0.07137 -0.208504,0.100452 -0.0803,0.02941 -0.1672,0.05617 -0.261044,0.08029 -0.09318,0.02412 -0.189669,0.04263 -0.288469,0.05617 -0.09913,0.01322 -0.191322,0.01983 -0.276904,0.01983 -0.598748,0 -1.061687,-0.180747 -1.388157,-0.541582 -0.325809,-0.360835 -0.489043,-0.875983 -0.489043,-1.544122 0,-0.337374 0.04263,-0.639391 0.128208,-0.906713 0.08558,-0.267322 0.207183,-0.494661 0.365461,-0.682348 0.157287,-0.186696 0.349931,-0.329774 0.5776,-0.429235 0.226678,-0.09847 0.482104,-0.148034 0.765617,-0.148034 0.224696,0 0.41734,0.01619 0.577931,0.04824 0.160261,0.03172 0.302017,0.07997 0.424939,0.1444 l -0.07996,0.248817 c -0.107061,-0.05915 -0.240557,-0.104417 -0.401148,-0.136469 -0.160261,-0.03238 -0.3344,-0.04824 -0.521757,-0.04824 -0.497304,0 -0.879947,0.165548 -1.147269,0.496974 -0.267322,0.331757 -0.400817,0.802626 -0.400817,1.412609 0,0.598748 0.135147,1.053426 0.405113,1.363704 0.269965,0.309948 0.664504,0.465253 1.183287,0.465253 0.154973,0 0.326139,-0.02412 0.513495,-0.07237 0.187026,-0.04791 0.339357,-0.10673 0.457322,-0.176121 z"
       id="Fill-15"
       fill="#ffffff"
       style="fill-rule:evenodd;stroke:none;stroke-width:0.330435" /><path
       d="m -23.554885,19.228918 h -0.272939 v -3.907391 c 0.192644,-0.09616 0.394209,-0.168522 0.606018,-0.216435 0.210817,-0.04824 0.423947,-0.07237 0.637739,-0.07237 0.309947,0 0.556121,0.03503 0.738191,0.104417 l -0.05617,0.240557 c -0.0803,-0.02643 -0.18207,-0.04791 -0.304991,-0.0641 -0.122922,-0.01586 -0.254105,-0.02379 -0.393218,-0.02379 -0.160591,0 -0.325147,0.01718 -0.493339,0.05188 -0.168521,0.03503 -0.322174,0.08426 -0.461287,0.148366 z"
       id="Fill-17"
       fill="#ffffff"
       style="fill-rule:evenodd;stroke:none;stroke-width:0.330435" /><path
       d="m -18.652257,19.092416 c -0.198261,0.05882 -0.413043,0.104087 -0.645669,0.136469 -0.232957,0.03205 -0.461948,0.04824 -0.686314,0.04824 -0.524069,0 -0.9196,-0.105409 -1.187252,-0.316887 -0.267982,-0.211479 -0.401148,-0.525722 -0.401148,-0.943061 0,-0.401148 0.139114,-0.704487 0.41734,-0.910348 0.277895,-0.205861 0.697878,-0.308957 1.259287,-0.308957 0.160591,0 0.331426,0.01487 0.513495,0.04395 0.18207,0.02974 0.3344,0.06576 0.457652,0.108383 v -0.313252 c 0,-0.480783 -0.09021,-0.8284 -0.269304,-1.042522 -0.179096,-0.213791 -0.487722,-0.321183 -0.926209,-0.321183 -0.171165,0 -0.346626,0.01784 -0.525721,0.05254 -0.179096,0.0347 -0.322174,0.07897 -0.429235,0.132173 l -0.03998,-0.256417 c 0.272609,-0.122922 0.620226,-0.184713 1.042852,-0.184713 0.492018,0 0.851531,0.127217 1.0792,0.380991 0.227009,0.254105 0.341009,0.616592 0.341009,1.0868 z m -0.272609,-1.901322 c -0.128539,-0.04791 -0.272939,-0.08591 -0.43386,-0.112348 -0.159931,-0.02676 -0.336383,-0.03998 -0.529027,-0.03998 -0.931165,0 -1.396087,0.325809 -1.396087,0.978418 0,0.342661 0.108053,0.595443 0.324818,0.758348 0.216765,0.163234 0.5548,0.244521 1.015096,0.244521 0.15993,0 0.330104,-0.0089 0.50953,-0.02776 0.179096,-0.01884 0.348609,-0.04957 0.50953,-0.09219 z"
       id="Fill-19"
       fill="#ffffff"
       style="fill-rule:evenodd;stroke:none;stroke-width:0.330435" /><path
       d="m -17.540575,19.228918 h -0.272939 v -4.645252 c 0,-0.545548 0.115982,-0.945374 0.348608,-1.199478 0.233287,-0.254105 0.584539,-0.381322 1.055409,-0.381322 0.149357,0 0.293096,0.01487 0.429565,0.04428 0.136139,0.02941 0.241548,0.06278 0.316887,0.100122 l -0.06443,0.248817 c -0.09649,-0.04263 -0.207513,-0.076 -0.333078,-0.100121 -0.125565,-0.02412 -0.242209,-0.03602 -0.348939,-0.03602 -0.38,0 -0.663513,0.100122 -0.850209,0.300696 -0.187687,0.200574 -0.280869,0.54687 -0.280869,1.038887 v 0.513496 h 1.732469 v 0.256747 h -1.732469 z"
       id="Fill-21"
       fill="#ffffff"
       style="fill-rule:evenodd;stroke:none;stroke-width:0.330435" /><path
       d="m -12.939667,19.060463 c -0.112348,0.05882 -0.248818,0.109704 -0.409079,0.15233 -0.160921,0.04296 -0.318539,0.0641 -0.473513,0.0641 -0.427913,0 -0.743478,-0.109704 -0.946695,-0.329113 -0.203218,-0.219078 -0.304992,-0.598417 -0.304992,-1.139008 V 13.82935 l 0.272939,-0.0641 v 1.347844 h 1.676627 v 0.240556 h -1.676627 v 2.495444 c 0,0.229652 0.02115,0.420974 0.0641,0.573304 0.0423,0.15233 0.107061,0.272939 0.192643,0.361165 0.08558,0.08856 0.188679,0.149687 0.308626,0.184383 0.120609,0.03469 0.25807,0.05221 0.413374,0.05221 0.160261,0 0.314244,-0.02148 0.461287,-0.06411 0.147044,-0.04263 0.263026,-0.08823 0.348939,-0.136469 z"
       id="Fill-23"
       fill="#ffffff"
       style="fill-rule:evenodd;stroke:none;stroke-width:0.330435" /><polygon
       id="Fill-25"
       fill="#82bfa1"
       points="24.719,8.2803 31.643,11.3573 24.719,18.2813 "
       transform="matrix(0.33043478,0,0,0.33043478,-58.435514,11.58084)"
       style="fill-rule:evenodd;stroke:none;stroke-width:1" /><polygon
       id="Fill-27"
       fill="#82bfa1"
       points="11.5002,31.5 23.7162,19.284 19.9892,15.58 "
       transform="matrix(0.33043478,0,0,0.33043478,-58.435514,11.58084)"
       style="fill-rule:evenodd;stroke:none;stroke-width:1" /><polygon
       id="Fill-29"
       fill="#82bfa1"
       points="6.6575,1.5 24.1325,18.868 24.1325,7.816 "
       transform="matrix(0.33043478,0,0,0.33043478,-58.435514,11.58084)"
       style="fill-rule:evenodd;stroke:none;stroke-width:1" /><polygon
       id="Fill-31"
       fill="#fa6340"
       points="35.1848,7.8154 25.1218,7.8154 38.0598,13.5654 "
       transform="matrix(0.33043478,0,0,0.33043478,-58.435514,11.58084)"
       style="fill-rule:evenodd;stroke:none;stroke-width:1" /><polygon
       id="polygon1760"
       fill="#82bfa1"
       points="24.719,18.2813 24.719,8.2803 31.643,11.3573 "
       transform="matrix(0.42024496,0,0,0.42024496,2.1993835,4.3658513)"
       style="fill:none;fill-rule:evenodd;stroke:#ffffff;stroke-width:0.07862909;stroke-dasharray:none;stroke-opacity:0.89999998" /><polygon
       id="polygon1762"
       fill="#82bfa1"
       points="19.9892,15.58 11.5002,31.5 23.7162,19.284 "
       transform="matrix(0.42024496,0,0,0.42024496,2.1993835,4.3658513)"
       style="fill:none;fill-rule:evenodd;stroke:#ffffff;stroke-width:0.07862909;stroke-dasharray:none;stroke-opacity:0.89999998" /><polygon
       id="polygon1764"
       fill="#82bfa1"
       points="24.1325,7.816 6.6575,1.5 24.1325,18.868 "
       transform="matrix(0.42024496,0,0,0.42024496,2.1993835,4.3658513)"
       style="fill:none;fill-rule:evenodd;stroke:url(#linearGradient2614);stroke-width:0.07862909;stroke-dasharray:none;stroke-opacity:0.89999998" /><polygon
       id="polygon1766"
       fill="#fa6340"
       points="38.0598,13.5654 35.1848,7.8154 25.1218,7.8154 "
       transform="matrix(0.42024496,0,0,0.42024496,2.1993835,4.3658513)"
       style="fill:none;fill-rule:evenodd;stroke:#ffffff;stroke-width:0.15725818;stroke-dasharray:none;stroke-opacity:0.89999998" /></g></svg>
